<svg xmlns="http://www.w3.org/2000/svg" width="36" height="36" viewBox="0 0 36 36" fill="none">
    <rect x="0.5" y="0.5" width="35" height="35" rx="17.5" fill="white"/>
    <rect x="0.5" y="0.5" width="35" height="35" rx="17.5" stroke="#EAF0F2"/>

    <mask id="mask0_2_260" style="mask-type:alpha" maskUnits="userSpaceOnUse" x="6" y="6" width="24" height="24">
        <rect x="6" y="6" width="24" height="24" fill="#D9D9D9"/>
    </mask>

    <g mask="url(#mask0_2_260)">
        <path d="M20.6923 24C20.0499 24 19.5048 23.776 19.0568 23.328C18.6088 22.8798 18.3848 22.3346 18.3848 21.6923C18.3848 21.0499 18.6088 20.5048 19.0568 20.0568C19.5048 19.6088 20.0499 19.3848 20.6923 19.3848C21.3346 19.3848 21.8798 19.6088 22.328 20.0568C22.776 20.5048 23 21.0499 23 21.6923C23 22.3346 22.776 22.8798 22.328 23.328C21.8798 23.776 21.3346 24 20.6923 24ZM11.3077 27.5C10.8026 27.5 10.375 27.325 10.025 26.975C9.675 26.625 9.5 26.1974 9.5 25.6923V12.3078C9.5 11.8026 9.675 11.375 10.025 11.025C10.375 10.675 10.8026 10.5 11.3077 10.5H12.6923V9.15377C12.6923 8.9346 12.7657 8.7516 12.9125 8.60477C13.0593 8.4581 13.2423 8.38477 13.4615 8.38477C13.6808 8.38477 13.8638 8.4581 14.0105 8.60477C14.1573 8.7516 14.2308 8.9346 14.2308 9.15377V10.5H21.8077V9.13477C21.8077 8.92193 21.8795 8.74368 22.023 8.60002C22.1667 8.45652 22.3449 8.38477 22.5577 8.38477C22.7706 8.38477 22.9487 8.45652 23.0922 8.60002C23.2359 8.74368 23.3077 8.92193 23.3077 9.13477V10.5H24.6923C25.1974 10.5 25.625 10.675 25.975 11.025C26.325 11.375 26.5 11.8026 26.5 12.3078V25.6923C26.5 26.1974 26.325 26.625 25.975 26.975C25.625 27.325 25.1974 27.5 24.6923 27.5H11.3077ZM11.3077 26H24.6923C24.7692 26 24.8398 25.9679 24.9038 25.9038C24.9679 25.8398 25 25.7693 25 25.6923V16.3078H11V25.6923C11 25.7693 11.0321 25.8398 11.0963 25.9038C11.1603 25.9679 11.2307 26 11.3077 26ZM11 14.8078H25V12.3078C25 12.2308 24.9679 12.1603 24.9038 12.0963C24.8398 12.0321 24.7692 12 24.6923 12H11.3077C11.2307 12 11.1603 12.0321 11.0963 12.0963C11.0321 12.1603 11 12.2308 11 12.3078V14.8078Z" fill="#3D404B"/>
    </g>
</svg>