<svg xmlns="http://www.w3.org/2000/svg" width="20" height="20" viewBox="0 0 20 20" fill="none">
    <path d="M9.89861 17.4096C6.79788 17.9337 4.77319 16.0267 4.14844 15.0077L4.73073 13.1698L5.40401 11.987L5.89533 9.69421L7.31467 7.89273L8.77041 7.81995L11.9366 7.89273L14.9573 12.0962L15.9763 14.6073C14.2003 17.4169 11.1845 17.6462 9.89861 17.4096Z" fill="url(#paint0_linear_2_227)"/>
    <path fill-rule="evenodd" clip-rule="evenodd" d="M10.7741 12.7745C10.6877 12.8318 10.5879 12.8657 10.4845 12.8729C10.3811 12.8802 10.2776 12.8605 10.1841 12.8159C10.059 12.7423 9.95864 12.633 9.89594 12.5021C9.83325 12.3712 9.81102 12.2245 9.8321 12.0809C9.77849 11.3688 9.47618 10.6982 8.97806 10.1865C8.81408 10.91 8.52318 11.5987 8.11885 12.2207L7.63749 12.9557C7.17789 13.657 6.96148 14.4899 7.02155 15.3263C7.06696 15.8888 7.32197 16.4138 7.73608 16.7972C8.15019 17.1806 8.6932 17.3946 9.25757 17.3966H10.5619C11.2103 17.3966 11.8323 17.1394 12.2912 16.6814C12.7502 16.2234 13.0088 15.602 13.0101 14.9536C13.0092 13.7121 12.5795 12.509 11.7938 11.5478C11.5723 12.0422 11.2197 12.4664 10.7741 12.7745Z" fill="url(#paint1_linear_2_227)"/>
    <path fill-rule="evenodd" clip-rule="evenodd" d="M13.0612 3.42062L12.7921 3.18253C12.7921 3.18253 12.7921 3.28605 12.7921 3.45686C12.7286 4.11189 12.5218 4.74494 12.1864 5.31115C11.8509 5.87736 11.3951 6.36285 10.8511 6.73324C10.8511 6.73324 10.8511 6.55208 10.8149 6.26741C10.7246 5.13949 10.3545 4.05187 9.73818 3.10294C9.12183 2.15401 8.27863 1.37372 7.28485 0.832642C7.28485 0.832642 7.24862 1.42788 7.20721 2.07487C7.14613 3.108 6.81603 4.10721 6.24966 4.97341L4.7331 7.27672C3.70144 8.85258 3.21757 10.7244 3.35629 12.6028C3.42532 13.5209 3.73799 14.404 4.26205 15.1609C4.78612 15.9179 5.50261 16.5214 6.33765 16.9092C6.04673 16.4578 5.86916 15.9429 5.82005 15.4082C5.74378 14.3127 6.02729 13.2222 6.6275 12.3026L7.10887 11.5728C7.61041 10.8312 7.90848 9.97089 7.97325 9.07795C7.98073 8.97882 8.0125 8.88304 8.06576 8.79909C8.11902 8.71514 8.19213 8.64559 8.27864 8.59659C8.36568 8.54809 8.46367 8.52263 8.56331 8.52263C8.66296 8.52263 8.76095 8.54809 8.84799 8.59659C9.77038 9.09901 10.4718 9.92784 10.8149 10.9206C10.8683 10.7758 10.9014 10.6242 10.9132 10.4703C10.9047 10.3365 10.9374 10.2033 11.0068 10.0886C11.0762 9.97386 11.179 9.8831 11.3014 9.82847C11.4345 9.78573 11.5775 9.78517 11.711 9.82686C11.8444 9.86856 11.9617 9.95047 12.0467 10.0614C12.7246 10.6824 13.2649 11.4385 13.6331 12.2809C14.0012 13.1233 14.189 14.0334 14.1844 14.9527C14.1851 15.5771 14.0227 16.1908 13.7134 16.7332C14.6334 16.253 15.4046 15.5305 15.9437 14.6438C16.4829 13.7571 16.7694 12.7399 16.7724 11.7022C16.7707 10.1385 16.4393 8.59269 15.7998 7.16571C15.1603 5.73873 14.2272 4.46261 13.0612 3.42062Z" fill="#FF7A1A"/>
    <defs>
        <linearGradient id="paint0_linear_2_227" x1="10.0624" y1="7.81995" x2="10.0624" y2="17.4991" gradientUnits="userSpaceOnUse">
            <stop stop-color="#FFC888"/>
            <stop offset="1" stop-color="#FFEBCD"/>
        </linearGradient>

        <linearGradient id="paint1_linear_2_227" x1="10.0109" y1="10.1865" x2="10.0109" y2="17.3966" gradientUnits="userSpaceOnUse">
            <stop stop-color="#FFBD8D"/>
            <stop offset="1" stop-color="#FF6B00"/>
        </linearGradient>
    </defs>
</svg>