<svg xmlns="http://www.w3.org/2000/svg" width="36" height="36" viewBox="0 0 36 36" fill="none">
    <rect x="0.5" y="0.5" width="35" height="35" rx="17.5" fill="white"/>
    <rect x="0.5" y="0.5" width="35" height="35" rx="17.5" stroke="#EAF0F2"/>

    <mask id="mask0_2_286" style="mask-type:alpha" maskUnits="userSpaceOnUse" x="6" y="6" width="24" height="24">
        <rect x="6" y="6" width="24" height="24" fill="#D9D9D9"/>
    </mask>

    <g mask="url(#mask0_2_286)">
        <path d="M14.9996 15.3078V25.6923C14.9996 25.7821 15.0285 25.8559 15.0861 25.9135C15.1438 25.9712 15.2175 26 15.3074 26H21.9996V22.9038C21.9996 22.6461 22.0859 22.4311 22.2584 22.2588C22.4307 22.0863 22.6457 22 22.9034 22H25.9996V15.3078C25.9996 15.2179 25.9708 15.1442 25.9131 15.0865C25.8555 15.0289 25.7817 15 25.6919 15H15.3074C15.2175 15 15.1438 15.0289 15.0861 15.0865C15.0285 15.1442 14.9996 15.2179 14.9996 15.3078ZM13.4996 25.6923V15.2923C13.4996 14.7936 13.6788 14.3703 14.0371 14.0223C14.3955 13.6741 14.824 13.5 15.3226 13.5H25.6919C26.1905 13.5 26.6165 13.6766 26.9699 14.0298C27.323 14.3831 27.4996 14.8091 27.4996 15.3078V22.0403C27.4996 22.2814 27.4528 22.5132 27.3591 22.7355C27.2656 22.958 27.1368 23.1513 26.9726 23.3153L23.3149 26.973C23.1509 27.1372 22.9576 27.266 22.7351 27.3595C22.5128 27.4532 22.281 27.5 22.0399 27.5H15.3074C14.8087 27.5 14.3827 27.3234 14.0294 26.9703C13.6762 26.6169 13.4996 26.1909 13.4996 25.6923ZM8.52462 12.423C8.43112 11.9244 8.52829 11.475 8.81612 11.075C9.10379 10.675 9.49704 10.4283 9.99587 10.3348L20.2304 8.52503C20.7189 8.43153 21.1605 8.5312 21.5554 8.82403C21.9502 9.11703 22.2047 9.50778 22.3189 9.99628L22.4746 10.8C22.5323 11.05 22.4935 11.2494 22.3581 11.398C22.223 11.5469 22.0625 11.6347 21.8766 11.6615C21.6906 11.6885 21.514 11.6555 21.3466 11.5625C21.1795 11.4695 21.0638 11.298 20.9996 11.048L20.8246 10.2115C20.8118 10.141 20.7733 10.0849 20.7091 10.0433C20.6451 10.0016 20.5746 9.9872 20.4976 10L10.2594 11.8193C10.1695 11.8321 10.1022 11.8738 10.0574 11.9443C10.0125 12.0148 9.99646 12.0949 10.0091 12.1848L11.6726 21.6693C11.7098 21.8758 11.6726 22.0643 11.5611 22.2348C11.4496 22.4053 11.2907 22.5123 11.0844 22.5558C10.8715 22.5994 10.6808 22.5597 10.5121 22.4365C10.3436 22.3135 10.2408 22.1456 10.2036 21.9328L8.52462 12.423Z" fill="#3D404B"/>
    </g>
</svg>