<svg xmlns="http://www.w3.org/2000/svg" width="24" height="24" viewBox="0 0 24 24" fill="none">
    <rect width="24" height="24" fill="white" fillOpacity="0.8"></rect>

    <g clipPath="url(#clip0_1_1311)">
        <path d="M10.9525 7.46965L10.8015 7.41047L10.6502 7.46896L9.44001 7.93686L9.91754 6.74249L9.97701 6.59375L9.92152 6.44348L9.51857 5.35217L10.5975 5.76042L10.7488 5.81769L10.8992 5.75778L12.0959 5.2809L11.6287 6.49349L11.5698 6.64631L11.6308 6.79834L12.0765 7.91014L10.9525 7.46965ZM17.9466 14.4676L17.7965 14.4116L17.6476 14.4705L16.4573 14.9411L16.9311 13.756L16.9926 13.6021L16.9316 13.448L16.4843 12.318L17.6022 12.7705L17.7573 12.8333L17.9127 12.7713L19.1002 12.2981L18.6302 13.4909L18.5709 13.6414L18.6287 13.7925L19.0438 14.8774L17.9466 14.4676ZM9.90976 16.6878L9.76487 16.6357L9.62093 16.6903L6.52116 17.8674L7.69824 14.7677L7.75274 14.6241L7.7011 14.4796L6.59487 11.3826L9.70181 12.4807L9.84524 12.5313L9.98759 12.4777L13.074 11.3146L11.9109 14.401L11.8571 14.5438L11.9082 14.6875L13.0164 17.8041L9.90976 16.6878Z" fill="#6947BF" stroke="#6947BF" strokeWidth="0.833333"></path>
    </g>

    <defs>
        <clipPath id="clip0_1_1311">
            <rect width="20" height="20" fill="white" transform="translate(2 2.00012)"></rect>
        </clipPath>
    </defs>
</svg>