<svg xmlns="http://www.w3.org/2000/svg" width="20" height="21" viewBox="0 0 20 21" fill="none" className="size-5">
    <mask id="mask0_3031_2143" maskUnits="userSpaceOnUse" x="0" y="0" width="20" height="21">
        <rect y="0.5" width="20" height="20" fill="#D9D9D9"></rect>
    </mask>

    <g mask="url(#mask0_3031_2143)">
        <path d="M16.285 17.6476L11.051 12.4134C10.6343 12.7574 10.1552 13.0267 9.61351 13.2211C9.07184 13.4155 8.51149 13.5128 7.93247 13.5128C6.50816 13.5128 5.30275 13.0196 4.31622 12.0334C3.32969 11.0471 2.83643 9.842 2.83643 8.41797C2.83643 6.99408 3.32955 5.78853 4.3158 4.8013C5.30205 3.81422 6.50719 3.32068 7.93122 3.32068C9.35511 3.32068 10.5607 3.81394 11.5479 4.80047C12.535 5.787 13.0285 6.99241 13.0285 8.41672C13.0285 9.01186 12.9286 9.58026 12.7289 10.1219C12.5291 10.6636 12.2625 11.1347 11.9291 11.5353L17.1631 16.7692L16.285 17.6476ZM7.93247 12.263C9.00622 12.263 9.91566 11.8903 10.6608 11.1451C11.4061 10.3999 11.7787 9.49047 11.7787 8.41672C11.7787 7.34297 11.4061 6.43353 10.6608 5.68839C9.91566 4.94311 9.00622 4.57047 7.93247 4.57047C6.85872 4.57047 5.94927 4.94311 5.20413 5.68839C4.45886 6.43353 4.08622 7.34297 4.08622 8.41672C4.08622 9.49047 4.45886 10.3999 5.20413 11.1451C5.94927 11.8903 6.85872 12.263 7.93247 12.263ZM5.94538 9.04172V7.79172H9.91955V9.04172H5.94538Z" fill="#7A8196"></path>
    </g>
</svg>