<svg xmlns="http://www.w3.org/2000/svg" width="20" height="21" viewBox="0 0 20 21" fill="none" className="size-5">
    <mask id="mask0_3031_2147" maskUnits="userSpaceOnUse" x="0" y="0" width="20" height="21">
        <rect y="0.5" width="20" height="20" fill="#D9D9D9"></rect>
    </mask>

    <g mask="url(#mask0_3031_2147)">
        <path d="M16.2855 17.6476L11.0515 12.4134C10.6348 12.7574 10.1557 13.0267 9.614 13.2211C9.07233 13.4155 8.51198 13.5128 7.93296 13.5128C6.50865 13.5128 5.30323 13.0196 4.31671 12.0334C3.33018 11.0471 2.83691 9.842 2.83691 8.41797C2.83691 6.99408 3.33004 5.78853 4.31629 4.8013C5.30254 3.81422 6.50768 3.32068 7.93171 3.32068C9.35559 3.32068 10.5612 3.81394 11.5484 4.80047C12.5355 5.787 13.029 6.99241 13.029 8.41672C13.029 9.01186 12.9291 9.58026 12.7294 10.1219C12.5296 10.6636 12.263 11.1347 11.9296 11.5353L17.1636 16.7692L16.2855 17.6476ZM7.93296 12.263C9.00671 12.263 9.91615 11.8903 10.6613 11.1451C11.4066 10.3999 11.7792 9.49047 11.7792 8.41672C11.7792 7.34297 11.4066 6.43353 10.6613 5.68839C9.91615 4.94311 9.00671 4.57047 7.93296 4.57047C6.85921 4.57047 5.94976 4.94311 5.20462 5.68839C4.45934 6.43353 4.08671 7.34297 4.08671 8.41672C4.08671 9.49047 4.45934 10.3999 5.20462 11.1451C5.94976 11.8903 6.85921 12.263 7.93296 12.263ZM7.30796 10.6603V9.04172H5.68941V7.79172H7.30796V6.17318H8.55796V7.79172H10.1765V9.04172H8.55796V10.6603H7.30796Z" fill="#7A8196"></path>
    </g>
</svg>