<svg viewBox="0 0 36 16" fill="none" xmlns="http://www.w3.org/2000/svg">
    <path d="M4.1215 12.3388H8.83071V14.9953H0.550781V12.8563L5.17374 5.57689H0.637031V2.92041H8.74446V5.05939L4.1215 12.3388Z" fill="#1E2026"/>
    <path d="M15.6146 6.37038H18.2021V14.9953H15.6146V14.1846C15.0971 14.8861 14.2749 15.2368 13.1479 15.2368C12.2279 15.2368 11.4574 14.9206 10.8364 14.2881C10.2269 13.6556 9.92216 12.7816 9.92216 11.6661V6.37038H12.5096V11.2866C12.5096 11.7926 12.6476 12.1836 12.9236 12.4596C13.2111 12.7241 13.5734 12.8563 14.0104 12.8563C14.5049 12.8563 14.8959 12.7068 15.1834 12.4078C15.4709 12.1088 15.6146 11.6661 15.6146 11.0796V6.37038Z" fill="#1E2026"/>
    <path d="M27.8621 14.9953L27.2584 13.0978H22.7734L22.1697 14.9953H19.151L23.2564 2.92041H26.7754L30.8809 14.9953H27.8621ZM23.6014 10.5103H26.4304L25.0159 6.07713L23.6014 10.5103Z" fill="#1E2026"/>
    <path d="M31.9105 6.15476C32.7448 5.59338 33.8361 5.59338 34.6704 6.15476V14.9953H31.9105V6.15476Z" fill="#1E2026"/>
    <path d="M33.2876 0.76416C33.2876 0.76416 33.6386 2.56918 35.4438 2.92039C35.4438 2.92039 33.6386 3.2716 33.2876 5.07662C32.9365 3.2716 31.1313 2.92039 31.1313 2.92039C32.9365 2.56918 33.2876 0.76416 33.2876 0.76416Z" fill="#F9C94E"/>
</svg>
